<mxfile host="app.diagrams.net" modified="2023-08-15T15:20:43.708Z" agent="Mozilla/5.0 (Macintosh; Intel Mac OS X 10_15_7) AppleWebKit/537.36 (KHTML, like Gecko) Chrome/115.0.0.0 Safari/537.36" etag="vH9JIoEFmYl6yyE4nxI9" version="21.6.8" type="device">
  <diagram name="conceptual" id="zbfIhDqlFIb40-dUwl7G">
    <mxGraphModel dx="1023" dy="560" grid="1" gridSize="10" guides="1" tooltips="1" connect="1" arrows="1" fold="1" page="1" pageScale="1" pageWidth="850" pageHeight="1100" math="0" shadow="0">
      <root>
        <mxCell id="0" />
        <mxCell id="1" parent="0" />
        <mxCell id="9qNZpBXGW4dA227-WRoH-9" value="" style="edgeStyle=orthogonalEdgeStyle;rounded=0;orthogonalLoop=1;jettySize=auto;html=1;endArrow=baseDash;endFill=0;labelBackgroundColor=none;strokeColor=#E07A5F;fontColor=default;" edge="1" parent="1" source="9qNZpBXGW4dA227-WRoH-1" target="9qNZpBXGW4dA227-WRoH-5">
          <mxGeometry relative="1" as="geometry" />
        </mxCell>
        <mxCell id="9qNZpBXGW4dA227-WRoH-11" style="edgeStyle=orthogonalEdgeStyle;rounded=0;orthogonalLoop=1;jettySize=auto;html=1;exitX=0.5;exitY=1;exitDx=0;exitDy=0;entryX=1;entryY=0.5;entryDx=0;entryDy=0;endArrow=baseDash;endFill=0;labelBackgroundColor=none;strokeColor=#E07A5F;fontColor=default;" edge="1" parent="1" source="9qNZpBXGW4dA227-WRoH-1" target="9qNZpBXGW4dA227-WRoH-4">
          <mxGeometry relative="1" as="geometry">
            <Array as="points">
              <mxPoint x="180" y="260" />
              <mxPoint x="180" y="335" />
            </Array>
          </mxGeometry>
        </mxCell>
        <mxCell id="9qNZpBXGW4dA227-WRoH-12" style="edgeStyle=orthogonalEdgeStyle;rounded=0;orthogonalLoop=1;jettySize=auto;html=1;entryX=0;entryY=0.75;entryDx=0;entryDy=0;endArrow=baseDash;endFill=0;labelBackgroundColor=none;strokeColor=#E07A5F;fontColor=default;" edge="1" parent="1" source="9qNZpBXGW4dA227-WRoH-1" target="9qNZpBXGW4dA227-WRoH-7">
          <mxGeometry relative="1" as="geometry">
            <Array as="points">
              <mxPoint x="220" y="343" />
            </Array>
          </mxGeometry>
        </mxCell>
        <mxCell id="9qNZpBXGW4dA227-WRoH-1" value="fact_sales&lt;br&gt;" style="rounded=0;whiteSpace=wrap;html=1;labelBackgroundColor=none;fillColor=#F2CC8F;strokeColor=#E07A5F;fontColor=#393C56;" vertex="1" parent="1">
          <mxGeometry x="150" y="230" width="110" height="30" as="geometry" />
        </mxCell>
        <mxCell id="9qNZpBXGW4dA227-WRoH-2" value="fact_inventory" style="rounded=0;whiteSpace=wrap;html=1;labelBackgroundColor=none;fillColor=#F2CC8F;strokeColor=#E07A5F;fontColor=#393C56;" vertex="1" parent="1">
          <mxGeometry x="680" y="230" width="110" height="30" as="geometry" />
        </mxCell>
        <mxCell id="9qNZpBXGW4dA227-WRoH-10" value="" style="edgeStyle=orthogonalEdgeStyle;rounded=0;orthogonalLoop=1;jettySize=auto;html=1;endArrow=baseDash;endFill=0;labelBackgroundColor=none;strokeColor=#E07A5F;fontColor=default;" edge="1" parent="1" source="9qNZpBXGW4dA227-WRoH-3" target="9qNZpBXGW4dA227-WRoH-1">
          <mxGeometry relative="1" as="geometry" />
        </mxCell>
        <mxCell id="9qNZpBXGW4dA227-WRoH-3" value="dim_customer" style="rounded=0;whiteSpace=wrap;html=1;labelBackgroundColor=none;fillColor=#F2CC8F;strokeColor=#E07A5F;fontColor=#393C56;" vertex="1" parent="1">
          <mxGeometry x="150" y="110" width="110" height="30" as="geometry" />
        </mxCell>
        <mxCell id="9qNZpBXGW4dA227-WRoH-4" value="dim_supplier" style="rounded=0;whiteSpace=wrap;html=1;labelBackgroundColor=none;fillColor=#F2CC8F;strokeColor=#E07A5F;fontColor=#393C56;" vertex="1" parent="1">
          <mxGeometry x="20" y="320" width="110" height="30" as="geometry" />
        </mxCell>
        <mxCell id="9qNZpBXGW4dA227-WRoH-5" value="dim_product" style="rounded=0;whiteSpace=wrap;html=1;labelBackgroundColor=none;fillColor=#F2CC8F;strokeColor=#E07A5F;fontColor=#393C56;" vertex="1" parent="1">
          <mxGeometry x="300" y="230" width="110" height="30" as="geometry" />
        </mxCell>
        <mxCell id="9qNZpBXGW4dA227-WRoH-8" value="" style="edgeStyle=orthogonalEdgeStyle;rounded=0;orthogonalLoop=1;jettySize=auto;html=1;endArrow=baseDash;endFill=0;labelBackgroundColor=none;strokeColor=#E07A5F;fontColor=default;" edge="1" parent="1" source="9qNZpBXGW4dA227-WRoH-6" target="9qNZpBXGW4dA227-WRoH-1">
          <mxGeometry relative="1" as="geometry" />
        </mxCell>
        <mxCell id="9qNZpBXGW4dA227-WRoH-6" value="dim_employee" style="rounded=0;whiteSpace=wrap;html=1;labelBackgroundColor=none;fillColor=#F2CC8F;strokeColor=#E07A5F;fontColor=#393C56;" vertex="1" parent="1">
          <mxGeometry x="10" y="230" width="110" height="30" as="geometry" />
        </mxCell>
        <mxCell id="9qNZpBXGW4dA227-WRoH-7" value="dim_date" style="rounded=0;whiteSpace=wrap;html=1;labelBackgroundColor=none;fillColor=#F2CC8F;strokeColor=#E07A5F;fontColor=#393C56;" vertex="1" parent="1">
          <mxGeometry x="280" y="320" width="110" height="30" as="geometry" />
        </mxCell>
        <mxCell id="9qNZpBXGW4dA227-WRoH-34" value="" style="edgeStyle=orthogonalEdgeStyle;rounded=0;orthogonalLoop=1;jettySize=auto;html=1;strokeColor=#E07A5F;fontColor=default;fillColor=#F2CC8F;endArrow=baseDash;endFill=0;labelBackgroundColor=none;" edge="1" parent="1" source="9qNZpBXGW4dA227-WRoH-13" target="9qNZpBXGW4dA227-WRoH-29">
          <mxGeometry relative="1" as="geometry" />
        </mxCell>
        <mxCell id="9qNZpBXGW4dA227-WRoH-13" value="fact_purchase_order&lt;br&gt;" style="rounded=0;whiteSpace=wrap;html=1;labelBackgroundColor=none;fillColor=#F2CC8F;strokeColor=#E07A5F;fontColor=#393C56;" vertex="1" parent="1">
          <mxGeometry x="410" y="550" width="110" height="30" as="geometry" />
        </mxCell>
        <mxCell id="9qNZpBXGW4dA227-WRoH-25" value="" style="edgeStyle=orthogonalEdgeStyle;rounded=0;orthogonalLoop=1;jettySize=auto;html=1;strokeColor=#E07A5F;fontColor=default;fillColor=#F2CC8F;endArrow=baseDash;endFill=0;labelBackgroundColor=none;" edge="1" parent="1" source="9qNZpBXGW4dA227-WRoH-14" target="9qNZpBXGW4dA227-WRoH-2">
          <mxGeometry relative="1" as="geometry" />
        </mxCell>
        <mxCell id="9qNZpBXGW4dA227-WRoH-14" value="fact_inventory" style="rounded=0;whiteSpace=wrap;html=1;labelBackgroundColor=none;fillColor=#F2CC8F;strokeColor=#E07A5F;fontColor=#393C56;" vertex="1" parent="1">
          <mxGeometry x="510" y="230" width="110" height="30" as="geometry" />
        </mxCell>
        <mxCell id="9qNZpBXGW4dA227-WRoH-24" value="" style="edgeStyle=orthogonalEdgeStyle;rounded=0;orthogonalLoop=1;jettySize=auto;html=1;strokeColor=#E07A5F;fontColor=default;fillColor=#F2CC8F;endArrow=baseDash;endFill=0;labelBackgroundColor=none;" edge="1" parent="1" source="9qNZpBXGW4dA227-WRoH-15" target="9qNZpBXGW4dA227-WRoH-2">
          <mxGeometry relative="1" as="geometry" />
        </mxCell>
        <mxCell id="9qNZpBXGW4dA227-WRoH-15" value="fact_inventory" style="rounded=0;whiteSpace=wrap;html=1;labelBackgroundColor=none;fillColor=#F2CC8F;strokeColor=#E07A5F;fontColor=#393C56;" vertex="1" parent="1">
          <mxGeometry x="680" y="110" width="110" height="30" as="geometry" />
        </mxCell>
        <mxCell id="9qNZpBXGW4dA227-WRoH-26" value="" style="edgeStyle=orthogonalEdgeStyle;rounded=0;orthogonalLoop=1;jettySize=auto;html=1;strokeColor=#E07A5F;fontColor=default;fillColor=#F2CC8F;endArrow=baseDash;endFill=0;labelBackgroundColor=none;" edge="1" parent="1" source="9qNZpBXGW4dA227-WRoH-16" target="9qNZpBXGW4dA227-WRoH-2">
          <mxGeometry relative="1" as="geometry" />
        </mxCell>
        <mxCell id="9qNZpBXGW4dA227-WRoH-16" value="fact_inventory" style="rounded=0;whiteSpace=wrap;html=1;labelBackgroundColor=none;fillColor=#F2CC8F;strokeColor=#E07A5F;fontColor=#393C56;" vertex="1" parent="1">
          <mxGeometry x="860" y="230" width="110" height="30" as="geometry" />
        </mxCell>
        <mxCell id="9qNZpBXGW4dA227-WRoH-32" value="" style="edgeStyle=orthogonalEdgeStyle;rounded=0;orthogonalLoop=1;jettySize=auto;html=1;strokeColor=#E07A5F;fontColor=default;fillColor=#F2CC8F;endArrow=baseDash;endFill=0;labelBackgroundColor=none;" edge="1" parent="1" source="9qNZpBXGW4dA227-WRoH-27" target="9qNZpBXGW4dA227-WRoH-13">
          <mxGeometry relative="1" as="geometry" />
        </mxCell>
        <mxCell id="9qNZpBXGW4dA227-WRoH-27" value="dim_customer" style="rounded=0;whiteSpace=wrap;html=1;labelBackgroundColor=none;fillColor=#F2CC8F;strokeColor=#E07A5F;fontColor=#393C56;" vertex="1" parent="1">
          <mxGeometry x="410" y="430" width="110" height="30" as="geometry" />
        </mxCell>
        <mxCell id="9qNZpBXGW4dA227-WRoH-33" value="" style="edgeStyle=orthogonalEdgeStyle;rounded=0;orthogonalLoop=1;jettySize=auto;html=1;strokeColor=#E07A5F;fontColor=default;fillColor=#F2CC8F;endArrow=baseDash;endFill=0;labelBackgroundColor=none;" edge="1" parent="1" source="9qNZpBXGW4dA227-WRoH-28" target="9qNZpBXGW4dA227-WRoH-13">
          <mxGeometry relative="1" as="geometry" />
        </mxCell>
        <mxCell id="9qNZpBXGW4dA227-WRoH-28" value="dim_employee" style="rounded=0;whiteSpace=wrap;html=1;labelBackgroundColor=none;fillColor=#F2CC8F;strokeColor=#E07A5F;fontColor=#393C56;" vertex="1" parent="1">
          <mxGeometry x="200" y="550" width="110" height="30" as="geometry" />
        </mxCell>
        <mxCell id="9qNZpBXGW4dA227-WRoH-29" value="dim_product" style="rounded=0;whiteSpace=wrap;html=1;labelBackgroundColor=none;fillColor=#F2CC8F;strokeColor=#E07A5F;fontColor=#393C56;" vertex="1" parent="1">
          <mxGeometry x="600" y="550" width="110" height="30" as="geometry" />
        </mxCell>
        <mxCell id="9qNZpBXGW4dA227-WRoH-35" style="edgeStyle=orthogonalEdgeStyle;rounded=0;orthogonalLoop=1;jettySize=auto;html=1;strokeColor=#E07A5F;fontColor=default;fillColor=#F2CC8F;endArrow=baseDash;endFill=0;labelBackgroundColor=none;" edge="1" parent="1" source="9qNZpBXGW4dA227-WRoH-30">
          <mxGeometry relative="1" as="geometry">
            <mxPoint x="450" y="570" as="targetPoint" />
          </mxGeometry>
        </mxCell>
        <mxCell id="9qNZpBXGW4dA227-WRoH-30" value="dim_supplier" style="rounded=0;whiteSpace=wrap;html=1;labelBackgroundColor=none;fillColor=#F2CC8F;strokeColor=#E07A5F;fontColor=#393C56;" vertex="1" parent="1">
          <mxGeometry x="200" y="660" width="110" height="30" as="geometry" />
        </mxCell>
        <mxCell id="9qNZpBXGW4dA227-WRoH-36" style="edgeStyle=orthogonalEdgeStyle;rounded=0;orthogonalLoop=1;jettySize=auto;html=1;strokeColor=#E07A5F;fontColor=default;fillColor=#F2CC8F;endArrow=baseDash;endFill=0;labelBackgroundColor=none;" edge="1" parent="1" source="9qNZpBXGW4dA227-WRoH-31">
          <mxGeometry relative="1" as="geometry">
            <mxPoint x="480" y="570" as="targetPoint" />
          </mxGeometry>
        </mxCell>
        <mxCell id="9qNZpBXGW4dA227-WRoH-31" value="dim_date" style="rounded=0;whiteSpace=wrap;html=1;labelBackgroundColor=none;fillColor=#F2CC8F;strokeColor=#E07A5F;fontColor=#393C56;" vertex="1" parent="1">
          <mxGeometry x="600" y="660" width="110" height="30" as="geometry" />
        </mxCell>
      </root>
    </mxGraphModel>
  </diagram>
</mxfile>
